<svg width="14" height="14" viewBox="0 0 14 14" fill="none" xmlns="http://www.w3.org/2000/svg">
<g clip-path="url(#clip0_60_864)">
<path d="M4.63139 2.16842C4.46736 2.33251 4.37521 2.55503 4.37521 2.78704C4.37521 3.01906 4.46736 3.24158 4.63139 3.40567L8.96264 7.73692L4.63139 12.0682C4.47201 12.2332 4.38381 12.4542 4.3858 12.6836C4.3878 12.9131 4.47982 13.1325 4.64205 13.2948C4.80428 13.457 5.02375 13.549 5.25317 13.551C5.48259 13.553 5.70362 13.4648 5.86864 13.3054L10.8185 8.35554C10.9826 8.19146 11.0747 7.96894 11.0747 7.73692C11.0747 7.5049 10.9826 7.28238 10.8185 7.11829L5.86864 2.16842C5.70456 2.00438 5.48204 1.91223 5.25002 1.91223C5.018 1.91223 4.79548 2.00438 4.63139 2.16842Z" fill="currentColor"/>
</g>
<defs>
<clipPath id="clip0_60_864">
<rect width="14" height="14" fill="white" transform="translate(14) rotate(90)"/>
</clipPath>
</defs>
</svg>
