<svg width="22" height="22" viewBox="0 0 22 22" fill="none" xmlns="http://www.w3.org/2000/svg">
<g opacity="0.7">
<path d="M11 11.9167C13.1963 11.9167 15.1937 12.5528 16.6632 13.4493C17.3965 13.8967 18.0235 14.4247 18.4763 14.9985C18.9218 15.5623 19.25 16.2369 19.25 16.9583C19.25 17.7329 18.8733 18.3434 18.3306 18.7788C17.8173 19.1913 17.1398 19.4645 16.4202 19.6552C14.9738 20.0374 13.0433 20.1667 11 20.1667C8.95675 20.1667 7.02625 20.0383 5.57975 19.6552C4.86017 19.4645 4.18275 19.1913 3.66942 18.7788C3.12583 18.3425 2.75 17.7329 2.75 16.9583C2.75 16.2369 3.07817 15.5623 3.52367 14.9976C3.9765 14.4247 4.60258 13.8976 5.33683 13.4484C6.80625 12.5538 8.80458 11.9167 11 11.9167ZM11 1.83334C12.2156 1.83334 13.3814 2.31623 14.2409 3.17577C15.1004 4.03531 15.5833 5.2011 15.5833 6.41668C15.5833 7.63225 15.1004 8.79804 14.2409 9.65758C13.3814 10.5171 12.2156 11 11 11C9.78442 11 8.61864 10.5171 7.75909 9.65758C6.89955 8.79804 6.41667 7.63225 6.41667 6.41668C6.41667 5.2011 6.89955 4.03531 7.75909 3.17577C8.61864 2.31623 9.78442 1.83334 11 1.83334Z" fill="white"/>
</g>
</svg>
