<svg  viewBox="0 0 30 30" fill="none" xmlns="http://www.w3.org/2000/svg">
<path d="M15 14.2349C13.8675 12.0337 10.785 7.92994 7.91875 5.90744C5.1725 3.96994 4.12625 4.30369 3.44 4.61619C2.645 4.97244 2.5 6.19369 2.5 6.90994C2.5 7.62869 2.89375 12.7962 3.15 13.6599C4 16.5099 7.0175 17.4724 9.8 17.1637C5.725 17.7674 2.10375 19.2512 6.85 24.5362C12.0725 29.9424 14.0075 23.3774 15 20.0487C15.9925 23.3774 17.135 29.7062 23.055 24.5362C27.5 20.0487 24.2762 17.7674 20.2012 17.1637C22.9825 17.4724 26.0012 16.5099 26.85 13.6599C27.1062 12.7974 27.5 7.62869 27.5 6.91119C27.5 6.19244 27.355 4.97369 26.56 4.61369C25.8737 4.30369 24.8275 3.96744 22.0813 5.90494C19.215 7.93119 16.1313 12.0349 15 14.2349Z" fill="currentColor"/>
</svg>
