<svg width="20" height="20" viewBox="0 0 20 20" fill="none" xmlns="http://www.w3.org/2000/svg">
<path d="M15.2753 3.06594C15.0579 2.84836 14.7997 2.67578 14.5155 2.55806C14.2313 2.44034 13.9267 2.37978 13.6191 2.37985C13.3115 2.37992 13.0069 2.44062 12.7227 2.55848C12.4386 2.67633 12.1805 2.84903 11.9631 3.06671L4.61105 10.4288C4.17299 10.8679 3.92687 11.4628 3.92665 12.083V14.56C3.92665 14.8801 4.18649 15.14 4.50665 15.14H6.99911C7.62009 15.14 8.21556 14.8925 8.65404 14.454L16.0007 7.10274C16.4389 6.66346 16.6851 6.0683 16.6851 5.4478C16.6851 4.82731 16.4389 4.23214 16.0007 3.79287L15.2753 3.06594ZM3.73332 16.3C3.57949 16.3 3.43197 16.3611 3.3232 16.4699C3.21443 16.5786 3.15332 16.7262 3.15332 16.88C3.15332 17.0338 3.21443 17.1813 3.3232 17.2901C3.43197 17.3989 3.57949 17.46 3.73332 17.46H16.1067C16.2605 17.46 16.408 17.3989 16.5168 17.2901C16.6255 17.1813 16.6867 17.0338 16.6867 16.88C16.6867 16.7262 16.6255 16.5786 16.5168 16.4699C16.408 16.3611 16.2605 16.3 16.1067 16.3H3.73332Z" fill="white"/>
</svg>
