<svg width="191" height="36" viewBox="0 0 191 36" fill="none" xmlns="http://www.w3.org/2000/svg">
<g clip-path="url(#clip0_60_1056)">
<path fill-rule="evenodd" clip-rule="evenodd" d="M23.2785 10.459C21.7805 9.45811 20.0194 8.92387 18.2178 8.92387V-0.185043C21.8209 -0.185043 25.3432 0.883414 28.3391 2.88522C31.335 4.88701 33.67 7.73225 35.0489 11.0611C36.4277 14.3899 36.7885 18.053 36.0856 21.5869C35.3827 25.1208 33.6476 28.3669 31.0997 30.9147C28.552 33.4625 25.3058 35.1976 21.7719 35.9005C18.238 36.6035 14.575 36.2427 11.2461 34.8639C7.91728 33.485 5.07205 31.15 3.07026 28.1541C1.06846 25.1581 0 21.6359 0 18.0328H9.10891C9.10891 19.8343 9.64315 21.5955 10.644 23.0934C11.6449 24.5914 13.0676 25.7589 14.732 26.4483C16.3964 27.1378 18.2279 27.3181 19.9949 26.9666C21.7618 26.6152 23.3849 25.7477 24.6588 24.4738C25.9327 23.1998 26.8002 21.5768 27.1517 19.8098C27.5032 18.0429 27.3228 16.2114 26.6334 14.547C25.9439 12.8825 24.7764 11.4599 23.2785 10.459Z" fill="#6B57F5"/>
<path fill-rule="evenodd" clip-rule="evenodd" d="M23.2785 10.459C21.7805 9.45811 20.0194 8.92387 18.2178 8.92387V-0.185043C21.8209 -0.185043 25.3432 0.883414 28.3391 2.88522C31.335 4.88701 33.67 7.73225 35.0489 11.0611C36.4277 14.3899 36.7885 18.053 36.0856 21.5869C35.3827 25.1208 33.6476 28.3669 31.0997 30.9147C28.552 33.4625 25.3058 35.1976 21.7719 35.9005C18.238 36.6035 14.575 36.2427 11.2461 34.8639C7.91728 33.485 5.07205 31.15 3.07026 28.1541C1.06846 25.1581 0 21.6359 0 18.0328H9.10891C9.10891 19.8343 9.64315 21.5955 10.644 23.0934C11.6449 24.5914 13.0676 25.7589 14.732 26.4483C16.3964 27.1378 18.2279 27.3181 19.9949 26.9666C21.7618 26.6152 23.3849 25.7477 24.6588 24.4738C25.9327 23.1998 26.8002 21.5768 27.1517 19.8098C27.5032 18.0429 27.3228 16.2114 26.6334 14.547C25.9439 12.8825 24.7764 11.4599 23.2785 10.459Z" fill="url(#paint0_linear_60_1056)"/>
<path fill-rule="evenodd" clip-rule="evenodd" d="M9.10891 -0.185039C9.10891 1.01116 8.8733 2.19565 8.41553 3.30079C7.95777 4.40593 7.28681 5.41009 6.44097 6.25593C5.59513 7.10178 4.59098 7.77273 3.48583 8.2305C2.38068 8.68826 1.1962 8.92387 3.9816e-07 8.92387L0 18.0328C2.3924 18.0328 4.76137 17.5616 6.97166 16.646C9.18196 15.7305 11.1903 14.3886 12.8819 12.6969C14.5736 11.0053 15.9155 8.99692 16.8311 6.78662C17.7466 4.57632 18.2178 2.20735 18.2178 -0.185043L9.10891 -0.185039Z" fill="#6B57F5"/>
<path fill-rule="evenodd" clip-rule="evenodd" d="M9.10891 -0.185039C9.10891 1.01116 8.8733 2.19565 8.41553 3.30079C7.95777 4.40593 7.28681 5.41009 6.44097 6.25593C5.59513 7.10178 4.59098 7.77273 3.48583 8.2305C2.38068 8.68826 1.1962 8.92387 3.9816e-07 8.92387L0 18.0328C2.3924 18.0328 4.76137 17.5616 6.97166 16.646C9.18196 15.7305 11.1903 14.3886 12.8819 12.6969C14.5736 11.0053 15.9155 8.99692 16.8311 6.78662C17.7466 4.57632 18.2178 2.20735 18.2178 -0.185043L9.10891 -0.185039Z" fill="url(#paint1_linear_60_1056)"/>
<path d="M121.425 12.9796H117.005V27.0185H121.425V12.9796Z" fill="#1D1A3B"/>
<path d="M117.497 10.3509C117.959 10.8131 118.537 11.0441 119.23 11.0441C119.923 11.0441 120.492 10.8131 120.934 10.3509C121.378 9.86946 121.599 9.29168 121.599 8.61767C121.599 7.92441 121.378 7.34665 120.934 6.88448C120.492 6.42228 119.923 6.19119 119.23 6.19119C118.537 6.19119 117.959 6.42228 117.497 6.88448C117.054 7.34665 116.833 7.92441 116.833 8.61767C116.833 9.29168 117.054 9.86946 117.497 10.3509Z" fill="#1D1A3B"/>
<path d="M53.5977 27.0185V6.62448H58.1329V23.0322H67.1745V27.0185H53.5977Z" fill="#1D1A3B"/>
<path fill-rule="evenodd" clip-rule="evenodd" d="M75.342 27.3363C73.8977 27.3363 72.5882 27.0185 71.4134 26.383C70.258 25.7283 69.3433 24.8424 68.6692 23.7254C67.9952 22.6085 67.6582 21.3567 67.6582 19.9702C67.6582 18.5836 67.9952 17.3415 68.6692 16.2438C69.3433 15.1461 70.258 14.2795 71.4134 13.644C72.5689 12.9892 73.8785 12.6618 75.342 12.6618C76.8056 12.6618 78.1151 12.9796 79.2706 13.6151C80.4261 14.2506 81.3409 15.1269 82.0148 16.2438C82.6889 17.3415 83.0259 18.5836 83.0259 19.9702C83.0259 21.3567 82.6889 22.6085 82.0148 23.7254C81.3409 24.8424 80.4261 25.7283 79.2706 26.383C78.1151 27.0185 76.8056 27.3363 75.342 27.3363ZM75.342 23.3211C75.9775 23.3211 76.536 23.1862 77.0175 22.9166C77.4989 22.6278 77.8648 22.233 78.1151 21.7323C78.3848 21.2123 78.5196 20.6249 78.5196 19.9702C78.5196 19.3154 78.3848 18.7473 78.1151 18.2659C77.8455 17.7652 77.47 17.38 76.9885 17.1104C76.5264 16.8215 75.9775 16.6771 75.342 16.6771C74.7258 16.6771 74.177 16.8215 73.6955 17.1104C73.2141 17.38 72.8385 17.7652 72.5689 18.2659C72.2993 18.7666 72.1646 19.3443 72.1646 19.999C72.1646 20.6346 72.2993 21.2123 72.5689 21.7323C72.8385 22.233 73.2141 22.6278 73.6955 22.9166C74.177 23.1862 74.7258 23.3211 75.342 23.3211Z" fill="#1D1A3B"/>
<path fill-rule="evenodd" clip-rule="evenodd" d="M86.5261 32.507C87.7008 33.0462 89.0585 33.3158 90.5992 33.3158C92.1012 33.3158 93.4397 33.0173 94.6144 32.4203C95.7892 31.8233 96.7134 30.9953 97.3875 29.9361C98.0615 28.8769 98.3989 27.6252 98.3989 26.1808V12.9796H94.0655V13.9228C93.7432 13.6516 93.3772 13.4239 92.9678 13.2396C92.2167 12.8737 91.3598 12.6907 90.3969 12.6907C89.1067 12.6907 87.9608 12.9988 86.9594 13.615C85.9579 14.212 85.1684 15.0401 84.5907 16.0993C84.0129 17.1393 83.7241 18.314 83.7241 19.6236C83.7241 20.9138 84.0129 22.0885 84.5907 23.1477C85.1684 24.2069 85.9579 25.0446 86.9594 25.6609C87.9608 26.2771 89.1067 26.5852 90.3969 26.5852C91.3405 26.5852 92.1975 26.4023 92.9678 26.0364C93.3409 25.8592 93.678 25.6503 93.9788 25.4097V26.2964C93.9788 27.2785 93.6611 28.0392 93.0256 28.5784C92.4094 29.1177 91.5524 29.3872 90.4547 29.3872C89.5689 29.3872 88.8082 29.2332 88.1726 28.925C87.5564 28.617 86.9979 28.1643 86.4972 27.5673L83.7819 30.2827C84.4558 31.2456 85.3707 31.9871 86.5261 32.507ZM92.8234 22.2522C92.3804 22.5218 91.8509 22.6566 91.2346 22.6566C90.6184 22.6566 90.0791 22.5218 89.6169 22.2522C89.174 21.9826 88.8274 21.6167 88.5771 21.1545C88.3267 20.6731 88.2015 20.1627 88.2015 19.6236C88.2015 19.0458 88.3267 18.5258 88.5771 18.0637C88.8274 17.6015 89.1836 17.2356 89.6458 16.9659C90.108 16.6963 90.6376 16.5615 91.2346 16.5615C91.8509 16.5615 92.3804 16.6963 92.8234 16.9659C93.2856 17.2356 93.6322 17.6015 93.8633 18.0637C94.1137 18.5258 94.2388 19.0458 94.2388 19.6236C94.2388 20.2012 94.1137 20.7212 93.8633 21.1834C93.6322 21.6263 93.2856 21.9826 92.8234 22.2522Z" fill="#1D1A3B"/>
<path fill-rule="evenodd" clip-rule="evenodd" d="M107.7 27.3363C106.255 27.3363 104.945 27.0185 103.771 26.383C102.615 25.7283 101.701 24.8424 101.027 23.7254C100.353 22.6085 100.016 21.3567 100.016 19.9702C100.016 18.5836 100.353 17.3415 101.027 16.2438C101.701 15.1461 102.615 14.2795 103.771 13.644C104.926 12.9892 106.236 12.6618 107.7 12.6618C109.163 12.6618 110.473 12.9796 111.628 13.6151C112.784 14.2506 113.698 15.1269 114.372 16.2438C115.046 17.3415 115.383 18.5836 115.383 19.9702C115.383 21.3567 115.046 22.6085 114.372 23.7254C113.698 24.8424 112.784 25.7283 111.628 26.383C110.473 27.0185 109.163 27.3363 107.7 27.3363ZM107.7 23.3211C108.335 23.3211 108.893 23.1862 109.375 22.9166C109.856 22.6278 110.222 22.233 110.473 21.7323C110.742 21.2123 110.877 20.6249 110.877 19.9702C110.877 19.3154 110.742 18.7473 110.473 18.2659C110.203 17.7652 109.828 17.38 109.346 17.1104C108.884 16.8215 108.335 16.6771 107.7 16.6771C107.083 16.6771 106.534 16.8215 106.053 17.1104C105.571 17.38 105.196 17.7652 104.926 18.2659C104.657 18.7666 104.522 19.3443 104.522 19.999C104.522 20.6346 104.657 21.2123 104.926 21.7323C105.196 22.233 105.571 22.6278 106.053 22.9166C106.534 23.1862 107.083 23.3211 107.7 23.3211Z" fill="#1D1A3B"/>
<path fill-rule="evenodd" clip-rule="evenodd" d="M132.048 27.3074C131.105 27.3074 130.238 27.1245 129.448 26.7586C129.033 26.566 128.657 26.3361 128.322 26.0688V32.9403H123.96V12.9796H128.38V13.9485C128.7 13.6863 129.056 13.4596 129.448 13.2685C130.238 12.8832 131.105 12.6907 132.048 12.6907C133.377 12.6907 134.552 13.0085 135.572 13.644C136.612 14.2795 137.421 15.1461 137.999 16.2438C138.596 17.3415 138.894 18.5932 138.894 19.999C138.894 21.4049 138.596 22.6566 137.999 23.7544C137.421 24.8521 136.612 25.7186 135.572 26.3541C134.552 26.9897 133.377 27.3074 132.048 27.3074ZM131.24 23.321C131.875 23.321 132.424 23.1766 132.886 22.8877C133.368 22.5989 133.743 22.204 134.013 21.7034C134.282 21.2027 134.417 20.6346 134.417 19.999C134.417 19.3443 134.282 18.7666 134.013 18.2659C133.743 17.7652 133.368 17.38 132.886 17.1104C132.424 16.8215 131.885 16.6771 131.268 16.6771C130.652 16.6771 130.103 16.8215 129.622 17.1104C129.159 17.38 128.794 17.7652 128.524 18.2659C128.255 18.7666 128.12 19.3443 128.12 19.999C128.12 20.6346 128.245 21.2027 128.495 21.7034C128.765 22.204 129.14 22.5989 129.622 22.8877C130.103 23.1766 130.642 23.321 131.24 23.321Z" fill="#1D1A3B"/>
<path d="M143.22 27.0474C144.029 27.2593 144.847 27.3651 145.675 27.3651C147.427 27.3651 148.814 26.9608 149.835 26.1519C150.874 25.3431 151.394 24.2551 151.394 22.8877C151.394 22.0019 151.231 21.2893 150.903 20.7501C150.576 20.1917 150.153 19.7487 149.633 19.4213C149.113 19.094 148.563 18.8339 147.986 18.6413C147.408 18.4488 146.859 18.2851 146.34 18.1503C145.82 18.0155 145.396 17.8614 145.068 17.6881C144.741 17.5147 144.577 17.2837 144.577 16.9948C144.577 16.7252 144.703 16.523 144.953 16.3882C145.203 16.2341 145.578 16.1572 146.079 16.1572C146.599 16.1572 147.129 16.263 147.668 16.4749C148.226 16.6867 148.727 17.0526 149.17 17.5726L151.683 15.0306C151.048 14.2217 150.22 13.615 149.199 13.2107C148.198 12.787 147.1 12.5752 145.906 12.5752C144.77 12.5752 143.778 12.7677 142.931 13.1529C142.083 13.5381 141.428 14.0677 140.966 14.7416C140.505 15.3964 140.273 16.1764 140.273 17.0815C140.273 17.9288 140.437 18.6318 140.764 19.1902C141.091 19.7294 141.516 20.1531 142.035 20.4612C142.555 20.7694 143.104 21.0101 143.682 21.1834C144.259 21.3567 144.809 21.5204 145.329 21.6745C145.848 21.8093 146.272 21.973 146.599 22.1656C146.946 22.3389 147.12 22.5989 147.12 22.9455C147.12 23.2151 146.975 23.4269 146.686 23.581C146.416 23.735 146.022 23.8121 145.502 23.8121C144.75 23.8121 144.057 23.6773 143.422 23.4077C142.786 23.1188 142.237 22.724 141.775 22.2233L139.262 24.7653C139.744 25.2853 140.322 25.7476 140.996 26.1519C141.689 26.537 142.43 26.8355 143.22 27.0474Z" fill="#1D1A3B"/>
<path d="M159.454 27.3363C158.164 27.3363 157.018 27.0763 156.017 26.5564C155.034 26.0171 154.265 25.2853 153.706 24.3609C153.147 23.4173 152.868 22.3389 152.868 21.1256V12.9796H157.288V21.0679C157.288 21.5493 157.364 21.9634 157.519 22.31C157.692 22.6566 157.943 22.9263 158.27 23.1188C158.598 23.3114 158.992 23.4077 159.454 23.4077C160.109 23.4077 160.629 23.2055 161.014 22.801C161.4 22.3774 161.592 21.7997 161.592 21.0679V12.9796H166.011V21.0967C166.011 22.3293 165.733 23.4173 165.173 24.3609C164.615 25.2853 163.845 26.0171 162.862 26.5564C161.881 27.0763 160.745 27.3363 159.454 27.3363Z" fill="#1D1A3B"/>
<path d="M172.628 12.9796H168.208V27.0185H172.628V18.8147C172.628 18.3333 172.725 17.9288 172.917 17.6015C173.129 17.2741 173.409 17.0237 173.755 16.8504C174.102 16.6578 174.496 16.5615 174.939 16.5615C175.575 16.5615 176.104 16.7637 176.528 17.1682C176.971 17.5533 177.193 18.1022 177.193 18.8147V27.0185H181.612V18.8147C181.612 18.3333 181.709 17.9288 181.901 17.6015C182.113 17.2741 182.392 17.0237 182.739 16.8504C183.085 16.6578 183.48 16.5615 183.923 16.5615C184.559 16.5615 185.088 16.7637 185.512 17.1682C185.954 17.5533 186.176 18.1022 186.176 18.8147V27.0185H190.596V18.3236C190.596 17.1489 190.346 16.1475 189.845 15.3194C189.363 14.472 188.699 13.8269 187.852 13.384C187.024 12.9218 186.07 12.6907 184.992 12.6907C183.894 12.6907 182.902 12.9314 182.017 13.4129C181.441 13.7196 180.938 14.1155 180.507 14.6004C180.106 14.0932 179.617 13.6781 179.041 13.3551C178.271 12.9122 177.395 12.6907 176.413 12.6907C175.373 12.6907 174.439 12.9122 173.611 13.3551C173.25 13.5394 172.923 13.7601 172.628 14.0172V12.9796Z" fill="#1D1A3B"/>
</g>
<defs>
<linearGradient id="paint0_linear_60_1056" x1="0" y1="18.0328" x2="36.4356" y2="18.0328" gradientUnits="userSpaceOnUse">
<stop stop-color="#6B57F5"/>
<stop offset="1" stop-color="#A758E3"/>
</linearGradient>
<linearGradient id="paint1_linear_60_1056" x1="0" y1="8.92387" x2="18.2178" y2="8.92387" gradientUnits="userSpaceOnUse">
<stop stop-color="#6B57F5"/>
<stop offset="1" stop-color="#A758E3"/>
</linearGradient>
<clipPath id="clip0_60_1056">
<rect width="191" height="36" fill="white"/>
</clipPath>
</defs>
</svg>
