<svg width="22" height="22" viewBox="0 0 22 22" fill="none" xmlns="http://www.w3.org/2000/svg">
<g clip-path="url(#clip0_60_1071)">
<path fill-rule="evenodd" clip-rule="evenodd" d="M11.0001 0.392944C8.60684 0.392944 6.26541 0.518659 4.02298 0.754373C3.21178 0.833413 2.45026 1.18131 1.85946 1.74279C1.26866 2.30426 0.882469 3.0471 0.762267 3.85323C0.275972 7.26132 0.270682 10.7208 0.746552 14.1304C0.996409 15.9234 2.50027 17.1978 4.23041 17.3597L4.57298 17.3911L4.92655 17.4225V20.8231C4.92668 20.9541 4.95955 21.0829 5.02217 21.198C5.0848 21.313 5.17518 21.4106 5.28512 21.4818C5.39505 21.553 5.52104 21.5956 5.65163 21.6057C5.78221 21.6158 5.91326 21.5931 6.03284 21.5397C8.24069 20.5497 9.57641 19.5879 11.1871 17.7839C13.4212 17.772 15.6532 17.6493 17.8751 17.4162C18.7103 17.3352 19.4941 16.9764 20.1012 16.3972C20.7083 15.818 21.1036 15.0519 21.2238 14.2215C21.4734 12.522 21.6016 10.8069 21.6073 9.08923C21.6073 7.31352 21.4706 5.57237 21.2317 3.90194C21.1113 3.08464 20.7209 2.33115 20.1225 1.76156C19.5242 1.19197 18.7524 0.839061 17.9301 0.759087C15.6279 0.518422 13.3149 0.396213 11.0001 0.392944ZM11.2688 5.36966C11.0702 5.33418 10.8663 5.34219 10.6711 5.39313C10.4758 5.44408 10.294 5.53675 10.1381 5.66477C9.98211 5.79278 9.85578 5.95308 9.76777 6.13463C9.67976 6.31618 9.63216 6.51465 9.62827 6.71637C9.62827 6.97685 9.52479 7.22667 9.3406 7.41085C9.15642 7.59504 8.9066 7.69852 8.64612 7.69852C8.38564 7.69852 8.13583 7.59504 7.95164 7.41085C7.76746 7.22667 7.66398 6.97685 7.66398 6.71637C7.66398 4.63423 9.61098 3.03766 11.6523 3.44309C12.9566 3.70237 14.0141 4.76309 14.2734 6.06423C14.4038 6.71952 14.3284 7.3418 14.044 7.90123C13.769 8.4418 13.3337 8.85509 12.8544 9.17409C12.4207 9.4648 12.1866 9.63609 12.0498 9.77752C12.0256 9.80287 12.0035 9.8302 11.9838 9.85923C11.9832 10.1197 11.8791 10.3693 11.6945 10.553C11.5099 10.7368 11.2598 10.8396 10.9993 10.839C10.7389 10.8384 10.4893 10.7343 10.3055 10.5497C10.1218 10.3651 10.0189 10.115 10.0196 9.85452C10.0196 9.24166 10.2883 8.77652 10.634 8.41666C10.9436 8.09609 11.3631 7.81009 11.7638 7.54137C12.0593 7.34337 12.2164 7.16266 12.2934 7.01023C12.3776 6.83503 12.3965 6.63557 12.3468 6.44766C12.2889 6.18378 12.1566 5.94201 11.9655 5.75097C11.7745 5.55993 11.5327 5.42761 11.2688 5.36966ZM11.9823 13.4515C11.9823 13.191 11.8788 12.9412 11.6946 12.757C11.5104 12.5728 11.2606 12.4694 11.0001 12.4694C10.7396 12.4694 10.4898 12.5728 10.3056 12.757C10.1215 12.9412 10.018 13.191 10.018 13.4515V13.8837C10.018 14.1441 10.1215 14.3939 10.3056 14.5781C10.4898 14.7623 10.7396 14.8658 11.0001 14.8658C11.2606 14.8658 11.5104 14.7623 11.6946 14.5781C11.8788 14.3939 11.9823 14.1441 11.9823 13.8837V13.4515Z" fill="#6B57F5"/>
<path fill-rule="evenodd" clip-rule="evenodd" d="M11.0001 0.392944C8.60684 0.392944 6.26541 0.518659 4.02298 0.754373C3.21178 0.833413 2.45026 1.18131 1.85946 1.74279C1.26866 2.30426 0.882469 3.0471 0.762267 3.85323C0.275972 7.26132 0.270682 10.7208 0.746552 14.1304C0.996409 15.9234 2.50027 17.1978 4.23041 17.3597L4.57298 17.3911L4.92655 17.4225V20.8231C4.92668 20.9541 4.95955 21.0829 5.02217 21.198C5.0848 21.313 5.17518 21.4106 5.28512 21.4818C5.39505 21.553 5.52104 21.5956 5.65163 21.6057C5.78221 21.6158 5.91326 21.5931 6.03284 21.5397C8.24069 20.5497 9.57641 19.5879 11.1871 17.7839C13.4212 17.772 15.6532 17.6493 17.8751 17.4162C18.7103 17.3352 19.4941 16.9764 20.1012 16.3972C20.7083 15.818 21.1036 15.0519 21.2238 14.2215C21.4734 12.522 21.6016 10.8069 21.6073 9.08923C21.6073 7.31352 21.4706 5.57237 21.2317 3.90194C21.1113 3.08464 20.7209 2.33115 20.1225 1.76156C19.5242 1.19197 18.7524 0.839061 17.9301 0.759087C15.6279 0.518422 13.3149 0.396213 11.0001 0.392944ZM11.2688 5.36966C11.0702 5.33418 10.8663 5.34219 10.6711 5.39313C10.4758 5.44408 10.294 5.53675 10.1381 5.66477C9.98211 5.79278 9.85578 5.95308 9.76777 6.13463C9.67976 6.31618 9.63216 6.51465 9.62827 6.71637C9.62827 6.97685 9.52479 7.22667 9.3406 7.41085C9.15642 7.59504 8.9066 7.69852 8.64612 7.69852C8.38564 7.69852 8.13583 7.59504 7.95164 7.41085C7.76746 7.22667 7.66398 6.97685 7.66398 6.71637C7.66398 4.63423 9.61098 3.03766 11.6523 3.44309C12.9566 3.70237 14.0141 4.76309 14.2734 6.06423C14.4038 6.71952 14.3284 7.3418 14.044 7.90123C13.769 8.4418 13.3337 8.85509 12.8544 9.17409C12.4207 9.4648 12.1866 9.63609 12.0498 9.77752C12.0256 9.80287 12.0035 9.8302 11.9838 9.85923C11.9832 10.1197 11.8791 10.3693 11.6945 10.553C11.5099 10.7368 11.2598 10.8396 10.9993 10.839C10.7389 10.8384 10.4893 10.7343 10.3055 10.5497C10.1218 10.3651 10.0189 10.115 10.0196 9.85452C10.0196 9.24166 10.2883 8.77652 10.634 8.41666C10.9436 8.09609 11.3631 7.81009 11.7638 7.54137C12.0593 7.34337 12.2164 7.16266 12.2934 7.01023C12.3776 6.83503 12.3965 6.63557 12.3468 6.44766C12.2889 6.18378 12.1566 5.94201 11.9655 5.75097C11.7745 5.55993 11.5327 5.42761 11.2688 5.36966ZM11.9823 13.4515C11.9823 13.191 11.8788 12.9412 11.6946 12.757C11.5104 12.5728 11.2606 12.4694 11.0001 12.4694C10.7396 12.4694 10.4898 12.5728 10.3056 12.757C10.1215 12.9412 10.018 13.191 10.018 13.4515V13.8837C10.018 14.1441 10.1215 14.3939 10.3056 14.5781C10.4898 14.7623 10.7396 14.8658 11.0001 14.8658C11.2606 14.8658 11.5104 14.7623 11.6946 14.5781C11.8788 14.3939 11.9823 14.1441 11.9823 13.8837V13.4515Z" fill="url(#paint0_linear_60_1071)"/>
</g>
<defs>
<linearGradient id="paint0_linear_60_1071" x1="0.393555" y1="11.0005" x2="21.6073" y2="11.0005" gradientUnits="userSpaceOnUse">
<stop stop-color="#6B57F5"/>
<stop offset="1" stop-color="#A758E3"/>
</linearGradient>
<clipPath id="clip0_60_1071">
<rect width="22" height="22" fill="white"/>
</clipPath>
</defs>
</svg>
